# xmcd CD database file
#
# Track frame offsets:
#	150
#	16491
#	33474
#	52188
#	69428
#	84069
#	106358
#	125895
#	141777
#	151340
#	169603
#	192414
#	205268
#	223031
#
# Disc length: 3553 seconds
#
# Revision: 3
# Processed by: cddbd v1.5.2PL0 Copyright (c) Steve Scherf et al.
# Submitted via: CDex 1.79
#
DISCID=c80ddf0e
DTITLE=Esperanza Spalding - Emily's D+Evolution (Deluxe Edition)
DYEAR=2016
DGENRE=Jazz
TTITLE0=Good Lava
TTITLE1=Unconditional Love
TTITLE2=Judas
TTITLE3=Earth To Heaven
TTITLE4=One
TTITLE5=Rest In Pleasure
TTITLE6=Ebony And Ivy
TTITLE7=Noble Nobles
TTITLE8=Farewell Dolly
TTITLE9=Elevate Or Operate
TTITLE10=Funk The Fear
TTITLE11=I Want It Now
TTITLE12=Change Us
TTITLE13=Unconditional Love (Alternate Version)
EXTD=YEAR: 2016
EXTT0=
EXTT1=
EXTT2=
EXTT3=
EXTT4=
EXTT5=
EXTT6=
EXTT7=
EXTT8=
EXTT9=
EXTT10=
EXTT11=
EXTT12=
EXTT13=
PLAYORDER=
